<svg width="125" height="28" viewBox="0 0 125 28" fill="none" xmlns="http://www.w3.org/2000/svg">
<path d="M13.16 27.48C10.9467 27.48 8.89333 27 7 26.04C5.13333 25.0533 3.62667 23.5733 2.48 21.6C1.33333 19.6267 0.76 17.16 0.76 14.2C0.76 12.0133 1.09333 10.08 1.76 8.4C2.45333 6.69333 3.38667 5.25333 4.56 4.08C5.76 2.90667 7.10667 2.02666 8.6 1.44C10.12 0.826664 11.6933 0.519998 13.32 0.519998C15.0533 0.519998 16.6 0.866665 17.96 1.56C19.3467 2.22667 20.4933 3.02667 21.4 3.96L17.8 8.36C17.16 7.8 16.4933 7.34667 15.8 7C15.1333 6.62667 14.36 6.44 13.48 6.44C12.4667 6.44 11.52 6.74667 10.64 7.36C9.78667 7.94667 9.09333 8.8 8.56 9.92C8.05333 11.04 7.8 12.3867 7.8 13.96C7.8 15.5867 8.02667 16.9733 8.48 18.12C8.96 19.24 9.61333 20.0933 10.44 20.68C11.2933 21.2667 12.28 21.56 13.4 21.56C14.4133 21.56 15.3067 21.3333 16.08 20.88C16.88 20.4267 17.56 19.9067 18.12 19.32L21.72 23.64C20.6267 24.92 19.3467 25.88 17.88 26.52C16.4133 27.16 14.84 27.48 13.16 27.48ZM25.3175 27V0.999999H32.1975V21.24H42.0375V27H25.3175ZM82.1534 27V0.999999H91.9934C93.8601 0.999999 95.5801 1.25333 97.1534 1.76C98.7268 2.24 99.9934 3.09333 100.953 4.32C101.913 5.54667 102.393 7.24 102.393 9.4C102.393 11.48 101.913 13.1733 100.953 14.48C99.9934 15.7867 98.7268 16.7467 97.1534 17.36C95.5801 17.9733 93.8601 18.28 91.9934 18.28H89.0334V27H82.1534ZM96.1534 27L90.7534 16.48L95.3934 11.92L103.833 27H96.1534ZM89.0334 12.84H91.5134C92.8734 12.84 93.9001 12.5467 94.5934 11.96C95.3134 11.3733 95.6734 10.52 95.6734 9.4C95.6734 8.28 95.3134 7.50667 94.5934 7.08C93.9001 6.65333 92.8734 6.44 91.5134 6.44H89.0334V12.84ZM107.349 27V0.999999H124.149V6.76H114.229V10.84H122.709V16.6H114.229V21.24H124.549V27H107.349Z" fill="#232569"/>
<path d="M42.8578 27L50.7778 0.999999H59.0978L67.0178 27H59.7378L56.7778 14.36C56.4578 13.1067 56.1378 11.7467 55.8178 10.28C55.4978 8.81333 55.1778 7.42667 54.8578 6.12H54.6978C54.4311 7.42667 54.1378 8.81333 53.8178 10.28C53.4978 11.7467 53.1778 13.1067 52.8578 14.36L49.8978 27H42.8578ZM48.5378 21.48V16.16H61.2578V21.48H48.5378ZM69.4972 27V0.999999H76.3772V27H69.4972Z" fill="url(#paint0_linear_8_7261)"/>
<defs>
<linearGradient id="paint0_linear_8_7261" x1="66" y1="-5" x2="66" y2="29" gradientUnits="userSpaceOnUse">
<stop stop-color="#47B367"/>
<stop offset="1" stop-color="#18ADD5"/>
</linearGradient>
</defs>
</svg>
